<?xml version="1.0" encoding="utf-8"?>
<!-- Generator: Adobe Illustrator 18.1.0, SVG Export Plug-In . SVG Version: 6.00 Build 0)  -->
<!DOCTYPE svg PUBLIC "-//W3C//DTD SVG 1.1//EN" "http://www.w3.org/Graphics/SVG/1.1/DTD/svg11.dtd">
<svg version="1.1" id="Layer_1" xmlns="http://www.w3.org/2000/svg" xmlns:xlink="http://www.w3.org/1999/xlink" x="0px" y="0px"
	 viewBox="0 0 48 48" enable-background="new 0 0 48 48" xml:space="preserve">
<circle stroke="#000000" stroke-miterlimit="10" cx="24.1" cy="24.1" r="22.6"/>
<g>
	<g>
		<path fill="#FFFFFF" d="M7.6,26c10.8,0,21.7,0,32.5,0c3.2,0,3.2-5,0-5c-10.8,0-21.7,0-32.5,0C4.4,21,4.4,26,7.6,26L7.6,26z"/>
	</g>
</g>
<g>
	<g>
		<path fill="#FCFAFA" d="M22,7.8c0,11.3,0,22.6,0,33.8c0,3.2,5,3.2,5,0c0-11.3,0-22.6,0-33.8C27,4.6,22,4.6,22,7.8L22,7.8z"/>
	</g>
</g>
</svg>
